<?xml version="1.0" encoding="UTF-8"?>
<svg id="Ebene_1" xmlns="http://www.w3.org/2000/svg" version="1.1" viewBox="0 0 595.28 841.89">
  <!-- Generator: Adobe Illustrator 29.3.1, SVG Export Plug-In . SVG Version: 2.1.0 Build 151)  -->
  <defs>
    <style>
      .st0 {
        fill: none;
        stroke: #009fe3;
        stroke-miterlimit: 10;
        stroke-width: .1px;
      }
    </style>
  </defs>
  <path class="st0" d="M-118.9-29.94c282.74,0,565.49.01,848.23,0,0,290.85-.01,581.7,0,872.55-282.74,0-565.49,0-848.23,0,.01-290.85-.02-581.7,0-872.55Z"/>
  <path class="st0" d="M-118.9,825.5c282.6-1.34,565.65-2.41,848.23,0"/>
  <path class="st0" d="M-118.9,808.39c142.01-.89,284.03,4.01,426.03,3.66,140.66-.35,281.59-5.24,422.2-3.66"/>
  <path class="st0" d="M-118.9,791.28c142.72-.74,285.42,7.96,428.1,7.69,65.4-.13,130.77-2.13,196.17-2.19,74.71-.06,149.27-6.2,223.96-5.5"/>
  <path class="st0" d="M-118.9,774.17c143.62-.31,287.16,12.85,430.71,12.77,66.02-.04,131.99-3.23,198.01-3.52,73.35-.32,146.22-9.53,219.51-9.24"/>
  <path class="st0" d="M-118.9,757.06c144.64.34,289.14,18.41,433.7,18.59,66.74.08,133.38-4.45,200.1-5.04,71.86-.64,142.67-13.24,214.43-13.55"/>
  <path class="st0" d="M-118.9,739.95c67.9.53,135.44,8.72,203.36,10.14,78.02,1.64,155.46,14.44,233.54,14.7,67.51.22,134.87-5.73,202.36-6.66,70.35-.97,138.8-17.19,208.98-18.18"/>
  <path class="st0" d="M-118.9,722.84c66.15.9,131.75,10.85,197.92,12.82,80.97,2.41,161.18,17.96,242.24,18.39,68.29.36,136.39-7.03,204.65-8.31,68.92-1.3,134.78-21.21,203.43-22.89"/>
  <path class="st0" d="M-118.9,705.74c64.48,1.24,128.14,12.98,192.65,15.41,83.83,3.16,166.72,21.38,250.67,21.97,69.04.48,137.88-8.29,206.87-9.91,67.67-1.59,130.8-25.13,198.05-27.46"/>
  <path class="st0" d="M-118.91,688.63c62.96,1.5,124.78,14.99,187.78,17.77,86.46,3.82,171.82,24.55,258.44,25.26,69.74.57,139.24-9.47,208.91-11.39,31.88-.88,61.53-3.64,92.39-12.09,33.65-9.21,65.6-18.05,100.71-19.55"/>
  <path class="st0" d="M-118.91,671.52c61.68,1.65,121.83,16.78,183.58,19.78,88.74,4.31,176.2,27.3,265.13,28.1,70.34.63,140.4-10.53,210.66-12.67,31.64-.97,60.53-3.86,90.83-13.45,32.77-10.37,63.35-20.08,98.03-21.75"/>
  <path class="st0" d="M-118.91,654.41c60.71,1.65,119.49,18.21,180.3,21.28,90.53,4.56,179.59,29.49,270.32,30.32,70.82.65,141.28-11.41,212.02-13.68,31.5-1.01,59.78-3.86,89.65-14.45,32.11-11.38,61.48-21.77,95.94-23.46"/>
  <path class="st0" d="M-118.9,637.3c31.03.77,60.1,6.14,90.3,12.71,29.4,6.4,57.95,7.96,87.9,9.42,91.69,4.49,181.7,30.94,273.61,31.73,71.14.6,141.81-12.06,212.86-14.34,31.48-1.01,59.34-3.59,88.96-14.97,31.72-12.18,60.14-23.02,94.61-24.55"/>
  <path class="st0" d="M-118.9,620.19c30.96.76,59.89,6.14,89.99,12.8,29.33,6.49,57.75,8.1,87.66,9.34,92.09,3.82,182.1,31.6,274.39,32.34,71.34.57,141.95-12.91,213.18-14.8,31.5-.84,59.22-3.29,88.78-14.91,31.62-12.43,59.72-23.31,94.23-24.77"/>
  <path class="st0" d="M-118.9,603.08c60.34,2.15,118.34,18.48,178.85,20.49,91.53,3.03,180.23,33.6,271.99,34.5,71.89.71,142.42-16.12,214.16-17.52,31.27-.61,59.19-3.46,88.79-14.1,31.63-11.37,60.47-21.44,94.46-23.37"/>
  <path class="st0" d="M-118.91,585.98c60.79,2.31,120.16,15.18,181.04,17.27,90.27,3.09,176.76,37.71,267.33,38.63,72.82.73,143.38-20.86,215.94-22.65,30.98-.76,59.27-3.39,89.02-12.6,31.74-9.82,61.43-18.65,94.9-20.65"/>
  <path class="st0" d="M-118.91,568.87c61.49,2.05,122.55,10.15,184.04,12.8,88.48,3.81,171.95,43.53,260.85,44.34,74.09.68,144.7-26.82,218.39-29.72,30.68-1.21,59.51-3.14,89.45-10.55,31.92-7.9,62.5-15.1,95.51-16.87"/>
  <path class="st0" d="M-118.9,551.76c62.41,1.47,125.33,3.76,187.64,7.37,86.32,5,166.07,50.61,252.99,51.26,75.64.56,146.31-33.67,221.33-38.26,30.39-1.86,59.92-2.75,90.01-8.08,32.13-5.69,63.56-10.95,96.26-12.28"/>
  <path class="st0" d="M-118.9,534.65c63.45.66,128.39-3.61,191.66,1.3,83.9,6.51,159.45,58.52,244.2,58.99,77.35.44,148.19-41.12,224.6-47.8,61.91-5.41,125.62-11.02,187.77-12.49"/>
  <path class="st0" d="M-118.9,517.54c64.48-.27,131.66-11.57,195.9-5.12,81.35,8.17,152.38,66.82,234.91,67.16,79.1.33,150.28-48.88,228.06-57.88,61.57-7.12,127.37-3.91,189.37-4.16"/>
  <path class="st0" d="M-118.9,500.43c65.4-1.23,135.06-19.69,200.16-11.58,78.83,9.83,145.15,75.11,225.56,75.38,80.81.27,152.5-56.66,231.53-68.01,61.54-8.84,128.93,3.23,190.98,4.21"/>
  <path class="st0" d="M-118.9,483.32c35.75-1.14,70.75-5.95,106.11-11.01,31.48-4.51,66.39-11.45,98.14-6.75,76.53,11.33,138.04,83.01,216.61,83.26,38.61.12,77.89-19,112.71-33.67,39.4-16.6,79.64-36.87,122.16-44.05,61.86-10.45,130.19,10.15,192.51,12.24"/>
  <path class="st0" d="M-118.9,466.21c36.73-1.53,72.29-7.83,108.38-14.37,31.51-5.71,67.58-14.39,99.59-9.01,74.63,12.55,131.34,90.14,208.47,90.42,39.14.14,79.4-21.62,114.04-37.56,39.75-18.29,80.46-40.76,123.87-49,62.5-11.87,131.06,16.57,193.88,19.53"/>
  <path class="st0" d="M-118.9,449.1c37.58-1.77,73.62-9.31,110.29-17.2,31.67-6.81,68.4-16.55,100.85-10.92,73.57,12.77,125.17,96.15,201.61,96.47,39.65.16,80.65-23.78,115.15-40.8,40.02-19.74,81.15-44.2,125.34-53.24,63.44-12.98,131.45,22.22,194.99,25.7"/>
  <path class="st0" d="M-118.9,431.99c38.28-1.79,74.61-10.4,111.72-19.31,31.77-7.63,69.02-18.24,101.83-12.37,72.98,13.06,120.25,100.69,196.46,101.03,40.15.18,81.52-25.26,115.98-43.17,40.16-20.87,81.65-47.07,126.48-56.53,64.65-13.64,131.27,26.86,195.77,30.35"/>
  <path class="st0" d="M-118.9,414.89c38.75-1.51,75.18-10.91,112.54-20.52,31.88-8.2,69.35-19.18,102.48-13.23,73.03,13.11,116.92,103.37,193.45,103.71,40.65.18,81.88-25.84,116.45-44.44,40.14-21.6,81.94-49.24,127.2-58.62,66.07-13.68,130.45,30.26,196.12,33.1"/>
  <path class="st0" d="M-118.9,397.78c38.94-1.23,75.51-10.97,112.99-20.74,32.13-8.37,69.3-19.09,102.76-13.44,73.67,12.44,115.58,103.93,192.81,104.35,41.02.22,81.7-25.52,116.38-44.64,39.78-21.93,81.47-50.35,126.75-59.29,67.16-13.26,129.96,31.66,196.54,33.76"/>
  <path class="st0" d="M-118.91,380.67c39.46-1.25,76.75-11.14,114.81-20.79,32.48-8.24,70.1-19.16,103.89-13.5,73.79,12.34,114.75,104.46,192.16,104.97,40.89.27,80.7-25.4,114.89-45.03,38.79-22.27,79.54-51.18,124.22-59.93,67.84-13.3,131.02,32.3,198.26,34.29"/>
  <path class="st0" d="M-118.91,363.56c40.43-1.28,78.9-11.32,117.99-20.89,33.11-8.11,71.68-19.36,106.05-13.57,73.69,12.41,113.56,105.51,190.97,106.01,40.34.26,78.89-25.6,112.03-45.76,37.3-22.69,76.57-52.19,120.24-60.94,68.54-13.74,132.96,33.15,200.94,35.16"/>
  <path class="st0" d="M-118.91,346.45c41.77-1.32,81.76-11.51,122.25-21.02,33.96-7.98,73.89-19.68,109.05-13.65,73.43,12.6,112.07,106.98,189.35,107.39,39.49.21,76.43-26.05,108.09-46.76,35.4-23.15,72.76-53.36,115.1-62.25,69.21-14.53,135.62,34.16,204.39,36.28"/>
  <path class="st0" d="M-118.91,329.34c43.38-1.37,85.15-11.71,127.31-21.18,34.96-7.85,76.56-20.09,112.66-13.72,73.04,12.88,110.36,108.77,187.41,109.03,38.43.13,73.51-26.69,103.35-47.95,33.19-23.64,68.3-54.64,109.11-63.77,69.78-15.61,138.89,35.29,208.4,37.6"/>
  <path class="st0" d="M-118.9,312.23c45.17-1.43,88.89-11.91,132.9-21.35,36.05-7.74,79.54-20.56,116.67-13.8,72.56,13.22,108.52,110.77,185.25,110.83,79.94.06,126.17-96.78,200.63-114.72,32.88-7.92,68.47,2.55,99.75,12.71,37.57,12.2,73.13,24.88,113.04,26.32"/>
  <path class="st0" d="M-118.9,295.13c47.05-1.49,92.78-12.1,138.72-21.53,37.18-7.63,82.68-21.08,120.86-13.87,72.02,13.59,106.63,112.89,183,112.71,77.43-.19,117.01-99.25,188.3-117.84,32.94-8.59,69.79,3.02,101.14,13.2,38.57,12.52,75.25,25.73,116.21,27.34"/>
  <path class="st0" d="M-118.9,278.02c48.92-1.55,96.65-12.28,144.52-21.71,38.27-7.54,85.82-21.6,125.03-13.95,71.47,13.95,104.77,115.02,180.76,114.57,74.89-.44,108.1-101.26,176.03-120.94,32.75-9.49,71.34,3.56,102.53,13.68,39.57,12.84,77.36,26.57,119.36,28.35"/>
  <path class="st0" d="M-118.9,260.91c50.7-1.6,100.31-12.45,150-21.88,39.29-7.45,88.79-22.11,128.96-14.03,70.95,14.28,103,117.04,178.65,116.34,72.9-.68,99.27-103.57,164.42-123.88,32.66-10.18,72.73,4.05,103.86,14.14,40.52,13.14,79.35,27.37,122.34,29.31"/>
  <path class="st0" d="M-118.9,243.8c52.29-1.65,103.58-12.61,154.88-22.03,40.19-7.38,91.41-22.55,132.44-14.1,70.55,14.53,101.37,118.83,176.78,117.92,71.41-.86,91.18-105.67,154.04-126.51,32.55-10.8,74.04,4.5,105.09,14.56,41.36,13.41,81.14,28.1,125.01,30.16"/>
  <path class="st0" d="M-118.9,226.69c53.59-1.69,106.26-12.75,158.9-22.15,40.92-7.31,93.53-22.9,135.24-14.17,70.31,14.7,99.94,120.25,175.25,119.23,70.56-.96,84.22-107.47,145.46-128.69,32.5-11.26,75.16,4.87,106.17,14.92,42.05,13.63,82.61,28.73,127.2,30.86"/>
  <path class="st0" d="M-118.9,209.58c54.51-1.72,108.18-12.87,161.77-22.24,41.42-7.25,94.97-23.11,137.17-14.24,70.3,14.77,98.77,121.18,174.18,120.18,70.47-.94,78.8-108.9,139.27-130.26,32.57-11.51,75.99,5.14,107.05,15.2,42.53,13.78,83.68,29.23,128.78,31.37"/>
  <path class="st0" d="M-118.9,192.47c54.96-1.74,109.16-12.96,163.21-22.29,41.66-7.19,95.56-23.16,138.01-14.31,70.57,14.71,97.93,121.5,173.69,120.67,71.24-.78,75.34-109.86,136.05-131.1,32.82-11.48,76.42,5.26,107.68,15.39,42.76,13.85,84.24,29.58,129.6,31.63"/>
  <path class="st0" d="M-118.9,175.36c54.79-2.05,108.82-12.89,162.76-22.02,41.42-7.01,95.67-23.17,137.76-13.93,69.45,15.25,99.42,119.96,173.97,119.07,69.82-.83,77.08-107.65,136.55-129.3,32.57-11.86,76.4,5.07,107.61,14.94,42.78,13.53,84.38,28.83,129.59,31.23"/>
  <path class="st0" d="M-118.9,158.25c54.11-2.21,107.48-12.36,160.82-21.05,41.18-6.71,94.79-22.39,136.5-13.15,34.66,7.68,61.48,37.55,86.15,60.93,23.6,22.37,53.76,53.27,88.89,52.81,67.89-.88,80.73-102.22,139.08-123.45,32.45-11.81,76.07,4.65,107.41,14.06,42.76,12.83,84.46,27.23,129.37,29.85"/>
  <path class="st0" d="M-118.9,141.15c53.03-2.13,105.38-11.44,157.74-19.52,40.99-6.32,92.95-20.83,134.38-12.12,67.4,14.17,105.24,106.32,176.78,105.43,66.38-.83,85-94.58,143.04-114.4,32.67-11.16,75.51,4.11,107.27,12.94,42.71,11.87,84.48,25.12,129.02,27.67"/>
  <path class="st0" d="M-118.9,124.04c51.64-1.87,102.68-10.23,153.76-17.55,40.79-5.84,90.4-18.65,131.58-10.9,66.9,12.6,108.69,95.53,179.03,94.77,65.15-.7,89.83-85.2,148.13-102.83,33.14-10.02,74.79,3.51,107.17,11.64,42.63,10.7,84.44,22.6,128.57,24.87"/>
  <path class="st0" d="M-118.9,106.93c50.03-1.5,99.56-8.81,149.13-15.25,40.31-5.24,87.65-16.32,128.29-9.54,66.34,11.06,112.59,82.99,181.64,82.42,64.09-.53,95.19-74.6,154.02-89.45,33.77-8.53,73.96,2.89,107.09,10.2,42.52,9.38,84.35,19.79,128.05,21.63"/>
  <path class="st0" d="M-118.9,89.82c48.29-1.06,96.17-7.26,144.1-12.76,40.02-4.59,84.39-13.27,124.7-8.09,66.19,8.51,116.37,69.4,184.49,69.01,63.17-.36,100.97-63.23,160.42-74.95,34.43-6.79,73.13,2.32,107.03,8.68,42.39,7.96,84.22,16.8,127.48,18.1"/>
  <path class="st0" d="M-118.9,72.71c85.9-1.11,174.2-24.39,259.91-16.79,65.99,5.85,120.19,55.41,187.43,55.2,62.46-.2,106.94-51.51,167.01-60.01,76.68-10.84,156.97,20.25,233.88,21.6"/>
  <path class="st0" d="M-118.91,55.6c83.66-.34,167.55-17.03,251.18-12.8,65.77,3.32,123.82,41.71,190.31,41.64,62.09-.07,112.78-39.9,173.49-45.33,77.59-6.94,155.63,16.08,233.25,16.5"/>
  <path class="st0" d="M-118.91,38.49c81.12.31,161.9-10.35,243.05-9.06,65.61,1.04,127.02,28.93,193,28.95,62.13.02,118.1-29.04,179.54-31.6,77.79-3.24,154.91,12.09,232.65,11.7"/>
  <path class="st0" d="M-118.91,21.39c78.65.73,157.28-5.07,235.94-5.73,65.6-.55,129.59,17.72,195.35,17.8,62.56.08,122.59-18.99,184.86-19.5,77.48-.64,154.63,8.36,232.08,7.43"/>
  <path class="st0" d="M-118.91,4.28C-42.24,5.14,34.75,2.92,111.39,1.29,177.18-.11,242.76,10.01,308.62,10.12c63.27.1,125.97-10.5,189.14-9.75,77.13.91,154.44,5.03,231.57,3.91"/>
  <path class="st0" d="M-118.91-12.83c141.63,1.19,283.43,1.49,425.04,1.66,64.02.08,128.07-4.03,192.07-3.02,76.96,1.22,154.16,2.2,231.13,1.36"/>
  <path class="st0" d="M712.7-29.94c.5,290.78-2.97,581.8,0,872.55"/>
  <path class="st0" d="M696.06-29.94c.18,77.98-.48,155.96-.74,233.93-.22,66.65,3.65,133.22,3.15,199.88-.53,69.99.83,139.99.83,209.98,0,76.26-4.27,152.51-3.24,228.75"/>
  <path class="st0" d="M679.43-29.94c.15,76.75-1.54,153.49-1.28,230.23.23,67.04,6.75,133.84,6.34,200.91-.44,71.84,1.64,143.68,1.73,215.52.1,75.4-7.66,150.52-6.8,225.88"/>
  <path class="st0" d="M662.8-29.94c.06,75.18-2.94,150.39-1.9,225.57.94,67.54,10.45,134.6,10.31,202.2-.15,74.16,2.65,148.28,2.87,222.43.22,74.41-11.65,147.99-11.29,222.34"/>
  <path class="st0" d="M646.17-29.94c-.06,73.37-4.56,146.89-2.58,220.24,1.84,68.14,14.57,135.43,14.83,203.68.29,76.79,3.78,153.53,4.17,230.31.37,73.37-16.08,145.06-16.42,218.31"/>
  <path class="st0" d="M629.54-29.94c-.19,71.39-6.26,143.17-3.29,214.52,2.86,68.8,18.93,136.29,19.66,205.26.84,79.61,4.99,159.15,5.56,238.75.52,72.36-20.77,141.86-21.94,214.01"/>
  <path class="st0" d="M612.9-29.94c-.33,69.34-7.92,139.42-4.01,208.7,3.93,69.49,23.36,137.13,24.58,206.88,1.44,82.46,6.21,164.87,6.98,247.34.67,71.47-25.54,138.51-27.55,209.63"/>
  <path class="st0" d="M596.27-29.94c-.46,67.35-9.46,135.79-4.72,203.05,4.95,70.17,27.67,137.9,29.36,208.44,2.04,85.23,7.4,170.44,8.36,255.68.8,70.74-30.19,135.16-33,205.38"/>
  <path class="st0" d="M579.64-29.94c-.55,65.53-10.79,132.46-5.38,197.86,5.85,70.83,31.68,138.57,33.76,209.88,2.56,87.77,8.49,175.56,9.62,263.35.91,70.23-34.55,131.95-38,201.46"/>
  <path class="st0" d="M563.01-29.94c-.6,63.98-11.84,129.57-5.99,193.42,6.55,71.42,35.22,139.1,37.55,211.11,2.92,89.96,9.43,179.96,10.71,269.95.99,69.95-38.44,129.04-42.27,198.06"/>
  <path class="st0" d="M546.38-29.94c-.6,62.84-12.57,127.31-6.5,190.01,6.96,71.92,38.11,139.46,40.51,212.06,3.04,91.67,10.17,183.37,11.54,275.08,1.05,69.89-41.66,126.62-45.55,195.4"/>
  <path class="st0" d="M529.74-29.94c-.54,62.19-12.91,125.85-6.9,187.91,7,72.29,40.17,139.6,42.41,212.64,2.84,92.79,10.64,185.52,12.05,278.33,1.06,70.02-44.05,124.89-47.56,193.67"/>
  <path class="st0" d="M513.11-29.94c-.71,62-12.93,125.69-6.91,187.56,7.03,72.33,40.61,139.64,42.71,212.73,2.68,93.05,11.04,186.01,12.28,279.09.44,33.2-5.53,61.89-18.77,92.3-14.57,33.46-27.69,63.76-29.3,100.87"/>
  <path class="st0" d="M496.48-29.94c-1.43,62.68-11.6,128.67-5.07,191.12,7.49,71.61,36.89,139.69,39.44,211.96,3.24,92.12,12.33,184.32,13.25,276.48.33,33.13-5.6,61.98-18.68,92.38-14.36,33.39-27.21,63.68-28.94,100.61"/>
  <path class="st0" d="M479.85-29.94c-1.66,64.99-8.09,133.87-1.76,198.6,6.91,70.69,30.64,139.24,33.22,210.4,3.29,90.44,14.11,180.87,15.05,271.35.34,32.92-5.48,61.81-18.27,92.11-14.04,33.25-26.5,63.45-28.25,100.09"/>
  <path class="st0" d="M463.22-29.94c-1.43,68.76-2.72,140.68,2.73,209.24,5.53,69.65,22.31,138.3,24.63,208.21,2.93,88.21,16.29,175.98,17.52,264.19.46,32.59-5.2,61.45-17.61,91.54-13.62,33.04-25.59,63.11-27.27,99.37"/>
  <path class="st0" d="M446.58-29.94c-1.54,142.91,18.52,285.17,22.35,427.81,2.3,85.52,18.78,170.02,20.5,255.49,1.37,67.96-39.95,122.4-42.84,189.25"/>
  <path class="st0" d="M429.95-29.94c.17,79.14,12.66,157.7,14.08,236.91,1.21,67.51,1.4,135.04,2.64,202.55,1.51,82.51,21.49,163.35,23.82,245.75,1.89,67-37.96,121.37-40.54,187.34"/>
  <path class="st0" d="M413.32-29.94c1.36,84.63,22.08,167.6,20.38,252.41-1.34,66.53-10.19,132.8-9.61,199.39.68,79.29,24.34,156.35,27.32,235.45,2.48,65.98-35.87,120.27-38.08,185.3"/>
  <path class="st0" d="M396.69-29.94c2.63,89.59,32.07,178.21,26.71,268.01-3.92,65.69-21.86,130.26-21.94,196.21-.09,76.04,27.23,149.33,30.84,225.09,3.09,64.94-33.75,119.16-35.61,183.23"/>
  <path class="st0" d="M380.06-29.94c2.2,54.12,12.98,107.21,21.94,160.5,6.74,40.07,14.81,81.7,10.86,122.45-6.31,65.03-33.1,127.5-33.76,193.16-.74,72.94,30.05,142.6,34.22,215.16,3.67,63.94-31.71,118.12-33.26,181.28"/>
  <path class="st0" d="M363.43-29.94c2.79,57.14,15.4,113.08,25.75,169.19,7.63,41.33,17.66,85.1,12.6,127.25-7.78,64.8-43.39,124.57-44.5,190.4-1.19,70.18,32.55,136.48,37.3,206.16,4.29,63-29.83,117.24-31.14,179.55"/>
  <path class="st0" d="M346.79-29.94c3.18,59.69,17.43,118.07,28.97,176.54,8.33,42.19,20.25,88.06,14.11,131.21-9.21,64.75-52.22,121.83-53.59,188.07-1.41,67.99,34.9,131.19,39.91,198.57,4.62,62.23-28.22,116.55-29.4,178.16"/>
  <path class="st0" d="M330.16-29.94c3.26,61.61,18.94,121.85,31.4,182.07,8.85,42.78,22.05,90.14,15.31,134.02-9.99,65.01-59.07,119.42-60.45,186.35-1.37,66.53,36.83,127.07,41.89,192.89,4.73,61.67-26.97,116.13-28.15,177.23"/>
  <path class="st0" d="M313.53-29.94c2.9,62.73,19.78,124.13,32.82,185.31,9.19,43.12,22.84,91.04,16.13,135.38-9.92,65.56-63.46,117.58-64.51,185.36-1.02,65.93,38.24,124.46,43.08,189.61,4.56,61.39-26.17,116.05-27.52,176.89"/>
  <path class="st0" d="M296.9-29.94c2.29,62.8,19.86,124.25,33.21,185.37,9.44,43.2,22.77,90.88,16.4,135.4-9.43,65.94-65.12,117.01-65.41,185.29-.28,65.84,37.79,124.41,42.8,189.49,4.68,60.91-24.88,116.58-27,177"/>
  <path class="st0" d="M280.26-29.94c2.03,61.97,20.05,122.31,33.83,182.42,9.81,42.82,23.01,89.94,16.69,134.18-9.44,66.14-66.26,117.33-66.08,185.86.18,66.04,34.56,126.69,39.83,192.11,4.86,60.27-21.49,118.04-24.27,177.97"/>
  <path class="st0" d="M263.63-29.94c1.97,60.49,20.54,118.99,34.88,177.39,10.3,41.96,23.5,88.07,17.22,131.63-9.6,66.58-67.45,117.86-67.26,186.89.19,66.86,29.73,130.24,34.69,196.65,4.5,60.18-16.7,119.99-19.53,179.99"/>
  <path class="st0" d="M247-29.94c2.05,58.52,21.27,114.58,36.27,170.72,10.89,40.75,24.2,85.46,17.94,128.02-9.89,67.21-68.67,118.56-68.86,188.27-.19,68.26,23.65,134.73,27.84,202.7,3.74,60.7-10.79,122.19-13.19,182.83"/>
  <path class="st0" d="M230.37-29.94c2.24,56.2,22.16,109.36,37.92,162.83,11.51,39.05,25.38,82.47,18.8,123.62-10.83,67.81-69.9,119.52-70.77,189.91-.86,70.18,16.68,139.85,19.7,209.89,2.66,61.78-4.07,124.5-5.66,186.3"/>
  <path class="st0" d="M213.74-29.94c2.48,53.69,23.15,103.62,39.74,154.13,12.28,37.41,26.29,78.85,19.76,118.71-11.26,68.68-71.15,120.43-72.87,191.73-1.75,72.51,9.09,145.32,10.73,217.81,1.43,63.28,3.15,126.87,2.65,190.17"/>
  <path class="st0" d="M197.1-29.94c2.74,51.14,24.18,97.64,41.64,145.07,13.13,35.66,27.29,75.02,20.75,113.55-11.8,69.54-72.41,121.43-75.07,193.63-2.77,75.14,1.26,150.88,1.37,226.07.09,65.06,10.58,129.23,11.31,194.22"/>
  <path class="st0" d="M180.47-29.94c5.13,83.45,80.13,159.67,65.26,244.49-12.34,70.39-73.68,122.44-77.26,195.52-3.82,77.91-6.48,156.29-7.94,234.29-1.25,66.96,17.93,131.51,19.93,198.25"/>
  <path class="st0" d="M163.84-29.94c5.5,80.03,82.75,149.28,67.98,231.14-12.84,71.19-74.93,123.41-79.32,197.31-4.79,80.66-13.84,161.32-16.74,242.06-2.48,68.85,24.92,133.61,28.08,202.04"/>
  <path class="st0" d="M147.21-29.94c5.73,77.28,85.1,139.67,70.41,219.28-13.26,71.88-76.17,124.27-81.16,198.9-5.57,83.21-20.49,165.74-24.6,249-3.49,70.64,31.31,135.36,35.35,205.37"/>
  <path class="st0" d="M130.58-29.94c5.79,75.35,87.05,131.4,72.41,209.6-13.57,72.45-77.37,124.97-82.67,200.2-6.02,85.39-26.15,169.31-31.07,254.71-4.17,72.28,36.83,136.58,41.33,208.04"/>
  <path class="st0" d="M113.94-29.94c5.61,74.4,88.46,125.11,73.83,202.81-13.71,72.84-78.51,125.44-83.74,201.12-6.01,87.04-30.53,171.81-35.71,258.81-4.39,73.68,41.25,137.11,45.61,209.81"/>
  <path class="st0" d="M97.31-29.94c5.14,74.52,89.16,121.47,74.55,199.6-13.66,73.02-79.6,125.63-84.26,201.57-5.39,87.98-33.36,173.01-38.07,260.89-4.01,74.71,44.33,136.84,47.78,210.49"/>
  <path class="st0" d="M80.68-29.94c5.95,73.59,88.56,122.81,73.58,199.82-14.12,72.59-78,126.18-83.15,201.59-5.99,87.68-33.11,172.7-37.81,260.33-4,74.58,43.67,137.26,47.37,210.81"/>
  <path class="st0" d="M64.05-29.94c6.51,72.64,85.01,125.73,70.29,201.39-13.99,71.93-73.92,127.01-79.43,201.5-6.42,86.68-31.47,171.19-36.17,257.87-4.03,74.27,41.24,138.45,45.32,211.79"/>
  <path class="st0" d="M47.42-29.94c6.37,72.36,78.94,129.09,65.15,203.97-13.11,71.2-68.31,127.9-73.63,201.32-6.17,85.26-29.12,168.71-33.56,253.99-3.85,74.11,38.02,139.94,42.04,213.26"/>
  <path class="st0" d="M30.79-29.94c5.7,72.62,70.91,132.71,58.56,207.35-11.66,70.44-61.49,128.82-66.19,201.08-5.43,83.52-26.22,165.48-30.16,249-3.49,74.11,34.19,141.64,37.78,215.12"/>
  <path class="st0" d="M14.15-29.94c4.64,73.28,61.46,136.5,50.93,211.3-9.81,69.67-53.77,129.71-57.56,200.79-4.35,81.52-22.92,161.7-26.21,243.2-3,74.26,29.91,143.46,32.83,217.26"/>
  <path class="st0" d="M-2.48-29.94C.85,44.21,48.63,110.43,40.17,185.66c-7.75,68.91-45.47,130.54-48.19,200.47-3.09,79.36-19.34,157.59-21.91,236.91-2.41,74.54,25.36,145.34,27.45,219.56"/>
  <path class="st0" d="M-19.11-29.94C-17.19,45.15,21.26,114.3,15,190.1c-5.63,68.21-36.93,131.25-38.54,200.15-1.81,77.12-15.66,153.35-17.47,230.42-1.76,74.91,20.7,147.23,21.9,221.94"/>
  <path class="st0" d="M-35.75-29.94c.56,75.99,29.82,147.98,25.73,224.4-3.61,67.58-28.49,131.82-29.06,199.83-.63,74.91-12.02,149.18-13.12,224.05-1.1,75.34,16.1,149.06,16.45,224.28"/>
  <path class="st0" d="M-52.38-29.94c-.6,76.79,20.01,151.43,17.9,228.46-1.84,67.07-20.51,132.22-20.2,199.53.33,72.83-8.58,145.29-9.05,218.09-.5,75.79,11.74,150.75,11.36,226.47"/>
  <path class="st0" d="M-69.01-29.94c-1.4,77.52,11.53,154.36,11.01,232-.45,66.69-13.32,132.47-12.42,199.27.96,71.02-5.49,141.86-5.5,212.87,0,76.23,7.78,152.2,6.91,228.41"/>
  <path class="st0" d="M-85.64-29.94c-1.68,78.2,4.97,156.56,5.46,234.8.42,66.45-7.27,132.59-6.15,199.08,1.17,69.57-2.92,139.11-2.66,208.68.28,76.66,4.4,153.34,3.35,229.99"/>
  <path class="st0" d="M-102.27-29.94c-1.28,78.8.93,157.84,1.66,236.65.62,66.34-2.72,132.62-1.86,198.96,1.88,145.43,1.7,291.5.2,436.93"/>
</svg>