<?xml version="1.0" encoding="UTF-8"?>
<svg id="Ebene_1" xmlns="http://www.w3.org/2000/svg" xmlns:xlink="http://www.w3.org/1999/xlink" version="1.1" viewBox="0 0 566.93 566.93">
  <!-- Generator: Adobe Illustrator 29.2.1, SVG Export Plug-In . SVG Version: 2.1.0 Build 116)  -->
  <defs>
    <style>
      .st0 {
        fill: none;
      }

      .st1 {
        fill: #97c8f7;
      }

      .st2 {
        clip-path: url(#clippath);
      }
    </style>
    <clipPath id="clippath">
      <rect class="st0" x="74.74" y="4.42" width="505.73" height="556.54"/>
    </clipPath>
  </defs>
  <g class="st2">
    <path class="st1" d="M285.35,547.43c-71.03-60.39-124.24-116.55-159.22-168.49-34.98-51.89-52.7-99.85-52.7-144.1,0-66.19,21.18-118.95,63.85-158.15,42.62-39.46,91.91-59.07,148.07-59.07s105.4,19.6,148.07,59.07c42.67,39.46,63.85,92.21,63.85,158.41,0,44.25-17.47,92.21-52.7,144.15-35.24,51.89-88.24,108.05-159.22,168.49v-.31ZM285.35,477.27c53.77-49.54,93.79-94.3,120.02-134.83,26.22-40.53,39.21-76.33,39.21-107.59,0-48.22-15.38-87.43-46.13-118.13-30.7-30.76-68.33-46.08-112.84-46.08s-82.13,15.33-112.84,46.08c-30.76,30.7-46.13,70.22-46.13,118.13,0,31.26,12.98,67.31,39.21,107.59,26.22,40.23,65.99,85.29,120.02,134.83h-.51ZM205.87,309.03h53.01v-72.87h52.96v72.87h53.01v-125.82l-79.48-53.01-79.48,53.01v125.82Z"/>
  </g>
</svg>