<?xml version="1.0" encoding="UTF-8"?>
<svg id="Ebene_1" xmlns="http://www.w3.org/2000/svg" xmlns:xlink="http://www.w3.org/1999/xlink" version="1.1" viewBox="0 0 566.93 566.93">
  <!-- Generator: Adobe Illustrator 29.2.1, SVG Export Plug-In . SVG Version: 2.1.0 Build 116)  -->
  <defs>
    <style>
      .st0 {
        fill: none;
      }

      .st1 {
        fill: #97c8f7;
      }

      .st2 {
        clip-path: url(#clippath);
      }
    </style>
    <clipPath id="clippath">
      <rect class="st0" x="-1.76" y="53.17" width="637.44" height="459.55"/>
    </clipPath>
  </defs>
  <g class="st2">
    <path class="st1" d="M65.82,174.78v-54.07,324.41V174.78ZM282.1,255.89l216.28-135.17H65.82l216.28,135.17ZM282.1,309.95L65.82,174.78v270.35h432.55V174.78l-216.28,135.17ZM65.82,499.2c-14.88,0-27.58-5.42-38.13-15.93-10.51-10.55-15.93-23.25-15.93-38.13V120.71c0-14.84,5.42-27.58,15.93-38.09,10.55-10.55,23.25-15.98,38.13-15.98h432.55c14.84,0,27.58,5.42,38.09,15.98,10.55,10.51,15.98,23.25,15.98,38.09v324.41c0,14.88-5.42,27.58-15.98,38.13-10.51,10.51-23.25,15.93-38.09,15.93H65.82Z"/>
  </g>
</svg>