<?xml version="1.0" encoding="UTF-8"?>
<svg id="Ebene_1" xmlns="http://www.w3.org/2000/svg" xmlns:xlink="http://www.w3.org/1999/xlink" version="1.1" viewBox="0 0 566.93 566.93">
  <!-- Generator: Adobe Illustrator 29.2.1, SVG Export Plug-In . SVG Version: 2.1.0 Build 116)  -->
  <defs>
    <style>
      .st0 {
        fill: none;
      }

      .st1 {
        fill: #97c8f7;
      }

      .st2 {
        clip-path: url(#clippath);
      }
    </style>
    <clipPath id="clippath">
      <rect class="st0" x="26.58" y="36.61" width="559.08" height="497.91"/>
    </clipPath>
  </defs>
  <g class="st2">
    <path class="st1" d="M346.27,441.25c17.04,7.33,34.35,13.35,52.11,17.81,17.86,4.46,35.4,7.33,53.48,8.66v-57.63l-61.59-12.57-44.01,44.01v-.27ZM111.85,206.83l43.23-43.23-11.3-61.54h-58.4c2.1,17.81,5.24,35.62,9.2,53.16,3.92,17.54,9.66,34.85,16.99,51.89l.27-.27ZM476.46,521.16c-54.48,0-108.42-11.8-161.85-35.62-53.21-23.82-101.68-57.63-145.41-101.08-43.73-43.5-77.26-92.2-101.08-145.41-23.87-53.43-35.62-107.37-35.62-161.85,0-7.88,2.6-14.44,7.84-19.68,5.24-5.19,11.8-7.84,19.63-7.84h106.1c6.01,0,11.53,2.1,16.54,6.29,4.97,4.19,7.56,9.16,8.61,14.67l17.04,91.65c.77,7.11.77,12.85-.77,17.86-1.59,4.97-3.69,8.88-7.33,12.53l-63.68,64.19c8.66,16.26,19.13,31.71,31.2,46.88,12.03,15.22,25.15,29.61,39.54,43.5,13.62,13.62,27.79,26.19,42.68,37.72,14.94,11.53,30.66,22.28,47.15,31.71l61.59-61.59c3.92-3.92,9.16-6.79,15.44-8.88,6.29-2.1,12.57-2.6,18.59-1.59l90.38,18.36c6.01,1.82,11.25,4.97,15.17,9.43,3.96,4.46,6.01,9.7,6.01,15.44v106.1c0,7.84-2.6,14.4-7.84,19.63-5.24,5.24-11.8,7.88-19.63,7.88l-.27-.27Z"/>
  </g>
</svg>