<?xml version="1.0" encoding="UTF-8"?>
<svg id="Ebene_1" xmlns="http://www.w3.org/2000/svg" xmlns:xlink="http://www.w3.org/1999/xlink" version="1.1" viewBox="0 0 566.93 566.93">
  <!-- Generator: Adobe Illustrator 29.2.1, SVG Export Plug-In . SVG Version: 2.1.0 Build 116)  -->
  <defs>
    <style>
      .st0 {
        fill: none;
      }

      .st1 {
        fill: #a4c6f4;
      }

      .st2 {
        clip-path: url(#clippath);
      }
    </style>
    <clipPath id="clippath">
      <rect class="st0" x="4.9" y="10.43" width="557.12" height="546.07"/>
    </clipPath>
  </defs>
  <g class="st2">
    <path class="st1" d="M478.98,529.78H87.95l-9.01-45.17h409.05l-9.01,45.17ZM129.45,369.28c6.8,3.85,15.35,6.75,27.03,6.75,20.75,0,31.61-9.15,40.35-16.5,7.31-6.15,12.14-10.22,23.13-10.22s15.83,4.07,23.14,10.22c8.73,7.35,19.6,16.5,40.34,16.5s31.61-9.15,40.35-16.5c7.31-6.16,12.14-10.22,23.14-10.22s15.83,4.07,23.14,10.22c8.73,7.35,19.6,16.5,40.35,16.5,11.69,0,20.24-2.9,27.04-6.75v88.62H129.45v-88.61ZM106.36,303.94c0-22.1,17.98-40.08,40.08-40.08h274.04c22.1,0,40.08,17.98,40.08,40.08v20.08c-12.49,2.86-20.36,9.48-26.99,15.06-7.31,6.16-12.15,10.22-23.14,10.22s-15.83-4.07-23.14-10.22c-8.73-7.35-19.61-16.5-40.35-16.5s-31.61,9.15-40.34,16.5c-7.31,6.16-12.14,10.22-23.14,10.22s-15.83-4.07-23.14-10.22c-8.73-7.35-19.6-16.5-40.35-16.5s-31.61,9.15-40.34,16.5c-7.31,6.16-12.15,10.22-23.14,10.22s-15.83-4.07-23.14-10.22c-6.63-5.58-14.5-12.2-26.98-15.06v-20.09h0ZM275.45,175.84h16.03v61.3h-16.03v-61.3ZM548.67,457.89h-84.47v-107.14c2.73-.93,5.84-1.45,9.73-1.45,7.37,0,13.36-5.98,13.36-13.36v-32.01c0-36.84-29.97-66.8-66.8-66.8h-102.28v-74.66c0-7.37-5.98-13.36-13.36-13.36h-42.75c-7.38,0-13.36,5.98-13.36,13.36v74.66h-102.29c-36.83,0-66.8,29.97-66.8,66.8v32.01c0,7.38,5.98,13.36,13.36,13.36,3.89,0,7.01.52,9.73,1.45v107.14H18.26c-7.38,0-13.36,5.98-13.36,13.36s5.98,13.36,13.36,13.36h33.43l12.19,61.14c1.25,6.25,6.73,10.75,13.11,10.75h412.95c6.37,0,11.85-4.5,13.1-10.75l12.2-61.14h33.43c7.38,0,13.36-5.98,13.36-13.36s-5.98-13.36-13.36-13.36"/>
    <path class="st1" d="M283.47,45.38c12.15,16.39,22.58,34.04,22.58,41.07,0,12.45-10.13,22.58-22.58,22.58s-22.58-10.13-22.58-22.58c0-7.01,10.44-24.67,22.59-41.07M283.46,135.76c27.19,0,49.3-22.12,49.3-49.3,0-22.94-29.91-60.34-39.07-71.26-2.54-3.02-6.29-4.77-10.23-4.77s-7.69,1.74-10.23,4.77c-9.16,10.92-39.07,48.32-39.07,71.26,0,27.18,22.11,49.3,49.3,49.3"/>
  </g>
</svg>